# xmcd CD database file
#
# Track frame offsets:
#	150
#	10438
#	27614
#	53476
#	73354
#	85451
#	108345
#	125517
#	142408
#	160702
#	177501
#	197776
#
# Disc length: 2864 seconds
#
# Revision: 0
# Processed by: cddbd v1.5.2PL0 Copyright (c) Steve Scherf et al.
# Submitted via: CDex 1.51
#
DISCID=b50b2e0c
DTITLE=Xavier Monge Trio and Carme Canela - Altres cançons a Mahalta
DYEAR=2006
DGENRE=Jazz
TTITLE0=Les filles del general
TTITLE1=Dispars de caçadors trio
TTITLE2=En el silenci obscur
TTITLE3=Cançó a Mahalta
TTITLE4=Vora la mar
TTITLE5=La nit es un palau
TTITLE6=Presència
TTITLE7=A la nit
TTITLE8=Tot es lluny
TTITLE9=Tardor 
TTITLE10=Els núvols
TTITLE11=Disparç de caçadors
EXTD=YEAR: 2006
EXTT0=
EXTT1=
EXTT2=
EXTT3=
EXTT4=
EXTT5=
EXTT6=
EXTT7=
EXTT8=
EXTT9=
EXTT10=
EXTT11=
PLAYORDER=
